<?xml version="1.0" encoding="UTF-8" standalone="no"?>
<!-- Generator: Adobe Illustrator 25.4.6, SVG Export Plug-In . SVG Version: 6.00 Build 0)  -->

<svg
   version="1.1"
   id="logo_x5F_carta-black"
   x="0px"
   y="0px"
   width="1024"
   height="433"
   viewBox="0 0 1024 433"
   enable-background="new 0 0 640 131"
   xml:space="preserve"
   sodipodi:docname="carta.svg"
   inkscape:version="1.2.2 (b0a84865, 2022-12-01)"
   inkscape:export-filename="carta.png"
   inkscape:export-xdpi="96"
   inkscape:export-ydpi="96"
   xmlns:inkscape="http://www.inkscape.org/namespaces/inkscape"
   xmlns:sodipodi="http://sodipodi.sourceforge.net/DTD/sodipodi-0.dtd"
   xmlns="http://www.w3.org/2000/svg"
   xmlns:svg="http://www.w3.org/2000/svg"><defs
   id="defs149" /><sodipodi:namedview
   id="namedview147"
   pagecolor="#ffffff"
   bordercolor="#666666"
   borderopacity="1.0"
   inkscape:showpageshadow="2"
   inkscape:pageopacity="0.0"
   inkscape:pagecheckerboard="0"
   inkscape:deskcolor="#d1d1d1"
   showgrid="false"
   inkscape:zoom="0.96624227"
   inkscape:cx="653.5628"
   inkscape:cy="444.5055"
   inkscape:window-width="2189"
   inkscape:window-height="1219"
   inkscape:window-x="878"
   inkscape:window-y="257"
   inkscape:window-maximized="0"
   inkscape:current-layer="logo_x5F_carta-black" />

<rect
   style="display:inline;fill:#ffffff;fill-opacity:1;stroke-width:0.4;stroke-dashoffset:153.287"
   id="rect2847"
   width="1024"
   height="433"
   x="2e-06"
   y="0"
   ry="0" /><g
   id="g144"
   transform="matrix(1.2504593,0,0,1.2504593,111.85303,134.58241)">
	<path
   d="M 187.77,59.41 H 156 c -1.67,0 -3.02,1.35 -3.02,3.02 V 83.5 c 0,7.79 -6.31,14.1 -14.09,14.1 L 36.8,97.66 c -0.6,0 -1.1,-0.49 -1.1,-1.1 V 46.64 c 0,-7.79 6.31,-14.1 14.1,-14.1 h 95.24 c 1.67,0 3.02,-1.35 3.02,-3.02 V 3.19 c 0,-1.67 -1.35,-3.02 -3.02,-3.02 H 88.81 c -3.71,0 -7.36,0.39 -10.95,1.15 -8.78,1.84 -17.01,5.87 -23.9,11.8 L 14.76,46.97 C 5.39,55.06 0,66.83 0,79.21 v 46.73 c 0,1.67 1.35,3.02 3.02,3.02 h 100.85 c 32.84,-0.36 78.67,-47.72 86.65,-65.29 0.91,-2 -0.55,-4.27 -2.76,-4.27 v 0.01 z"
   id="path132" />
	<path
   d="m 283.08,103.72 c -7.4,6.91 -14.1,11.19 -24.64,11.19 -16.03,0 -28.12,-13.06 -28.12,-30.38 v -0.25 c 0,-17.18 12.09,-30.13 28.12,-30.13 8.65,0 16.05,3.3 24.01,10.69 l 0.66,0.61 11.05,-12.73 -0.6,-0.57 c -7.21,-6.89 -17,-13.92 -35,-13.92 -26.33,0 -46.19,19.91 -46.19,46.31 v 0.25 c 0,26.26 19.59,46.06 45.56,46.06 18.57,0 28.76,-8 36.28,-15.83 l 0.59,-0.61 -11.11,-11.25 z"
   id="path134" />
	<path
   d="m 337.89,39.09 -39.42,90.24 h 17.72 l 9.04,-21.21 h 40.4 l 8.91,21.21 h 18.23 L 353.35,39.09 Z m 21.34,53.6 h -27.61 l 13.75,-32.07 z"
   id="path136" />
	<path
   d="m 475.35,68.58 v -0.25 c 0,-7.74 -2.6,-14.5 -7.54,-19.58 -6.05,-5.91 -15.02,-9.04 -25.97,-9.04 H 401.8 v 89.61 h 17.18 V 98.7 H 437 l 21.33,30.26 0.26,0.37 h 20.35 l -24,-33.65 c 13.17,-4.19 20.41,-13.77 20.41,-27.1 z M 418.99,55.52 h 21.6 c 11.18,0 17.33,4.86 17.33,13.69 v 0.25 c 0,8.39 -6.75,13.82 -17.2,13.82 H 419 V 55.52 Z"
   id="path138" />
	<path
   d="m 556.6,39.72 h -73.04 v 16.05 h 27.87 v 73.56 h 17.31 V 55.77 h 27.87 V 39.72 Z"
   id="path140" />
	<path
   d="m 600.58,39.09 h -15.45 l -39.42,90.24 h 17.72 l 9.04,-21.21 h 40.4 l 8.91,21.21 H 640 Z m 5.89,53.6 h -27.61 l 13.75,-32.07 z"
   id="path142" />
</g></svg>
