<?xml version="1.0" encoding="UTF-8" standalone="no"?>
<svg
   id="_イヤー_2"
   viewBox="0 0 1024 433.00001"
   version="1.1"
   sodipodi:docname="ht_kot.svg"
   width="1024"
   height="433"
   inkscape:version="1.2.2 (b0a84865, 2022-12-01)"
   inkscape:export-filename="ht_kot.png"
   inkscape:export-xdpi="96"
   inkscape:export-ydpi="96"
   xmlns:inkscape="http://www.inkscape.org/namespaces/inkscape"
   xmlns:sodipodi="http://sodipodi.sourceforge.net/DTD/sodipodi-0.dtd"
   xmlns="http://www.w3.org/2000/svg"
   xmlns:svg="http://www.w3.org/2000/svg">
  <sodipodi:namedview
     id="namedview183"
     pagecolor="#ffffff"
     bordercolor="#666666"
     borderopacity="1.0"
     inkscape:showpageshadow="2"
     inkscape:pageopacity="0.0"
     inkscape:pagecheckerboard="0"
     inkscape:deskcolor="#d1d1d1"
     showgrid="false"
     inkscape:zoom="0.3639095"
     inkscape:cx="316.01263"
     inkscape:cy="127.77902"
     inkscape:window-width="1440"
     inkscape:window-height="847"
     inkscape:window-x="0"
     inkscape:window-y="25"
     inkscape:window-maximized="1"
     inkscape:current-layer="_イヤー_2" />
  <defs
     id="defs134">
    <style
       id="style132">.cls-1{fill:#fff;}.cls-2{fill:#1d9e48;}.cls-3{fill:#f18800;}</style>
  </defs>
  <rect
     style="fill:#ffffff;stroke-width:2.18317;stroke-dashoffset:153.287"
     id="rect2827"
     width="1024"
     height="433"
     x="0"
     y="-2.1316282e-14" />
  <g
     id="_イヤー_1-2"
     transform="matrix(1.0719253,0,0,1.0719253,88.702059,157.51195)">
    <g
       id="KING_OF_TIMEロゴ">
      <path
         class="cls-1"
         d="m 82.77,64.54 c 0,20.57 -16.68,37.25 -37.25,37.25 -20.57,0 -37.24,-16.68 -37.24,-37.25 0,-20.57 16.68,-37.25 37.25,-37.25 20.57,0 37.25,16.68 37.25,37.25 z"
         id="path136" />
      <g
         id="g146">
        <path
           class="cls-2"
           d="M 209.45,16.34 H 192.3 c -1.04,0 -1.87,0.79 -1.87,1.76 v 83.01 c 0,1.03 0.84,1.87 1.87,1.87 h 17.15 c 1.04,0 1.87,-0.84 1.87,-1.87 V 18.23 c 0,-1.03 -0.83,-1.88 -1.87,-1.88 z"
           id="path138" />
        <path
           class="cls-2"
           d="m 374.79,51.28 h -36.37 c -1.03,0 -1.86,0.83 -1.86,1.86 V 66.1 c 0,1.03 0.83,1.86 1.86,1.86 h 19.27 c 0,7.21 -4.74,17.34 -19.05,17.34 -14.31,0 -21.76,-9.03 -21.76,-26.13 0,-17.1 7.52,-26.14 21.76,-26.14 5.33,0 10.4,2.35 14.36,6.56 0,0 0.98,1.05 1.28,1.46 0.31,0.41 0.76,0.66 1.23,0.71 0.48,0.07 0.98,-0.05 1.4,-0.37 0.42,-0.31 12.78,-8.86 13.18,-9.18 0.41,-0.3 0.65,-0.75 0.71,-1.21 0.06,-0.47 -0.06,-0.96 -0.37,-1.37 -0.31,-0.42 -1.11,-1.39 -1.11,-1.39 -7.86,-9.54 -18.84,-14.97 -30.68,-14.97 -25.23,0 -41.53,18.02 -41.53,45.91 0,27.89 16.3,45.91 41.53,45.91 20.96,0 38,-18.79 38,-41.88 V 53.16 c 0,-1.03 -0.83,-1.86 -1.85,-1.86 z"
           id="path140" />
        <path
           class="cls-2"
           d="m 185.59,100.71 c -0.93,-18.45 -11.97,-34.56 -28.26,-43.99 11.54,-8.35 20.12,-21.35 23.6,-36.61 0,0 0.22,-0.85 0.41,-1.87 0.18,-1.02 -0.76,-1.88 -1.7,-1.88 H 164.3 c -1.17,0 -1.83,0.88 -2.11,1.88 -0.3,1.01 -0.56,1.87 -0.56,1.87 -5.25,16.25 -18.6,27.86 -34.27,27.88 -0.33,-0.01 -0.68,-0.02 -1.02,-0.03 V 17.22 c 0,-0.48 -0.4,-0.88 -0.88,-0.88 h -16.88 c -0.48,0 -0.88,0.4 -0.88,0.88 v 84.96 c 0,0.48 0.4,0.87 0.88,0.87 h 16.88 c 0.49,0 0.88,-0.39 0.88,-0.87 V 66.63 c 21.83,1.01 39.38,15.91 40.62,34.51 h 0.01 c 0,0 0,0.03 0,0.05 0,1.03 0.85,1.86 1.91,1.86 0.05,0 0.11,0 0.16,-0.01 v 0 c -0.06,0 -0.11,0.01 -0.16,0.01 h 14.92 c 0.92,0 1.62,-0.67 1.78,-1.54 0.02,-0.11 0.08,-0.65 0.03,-0.81 z"
           id="path142" />
        <path
           class="cls-2"
           d="m 289.46,16.34 h -14.9 c -1.03,0 -1.87,0.85 -1.87,1.88 v 22.4 c -9.68,-13.26 -22.5,-21.97 -36.95,-23.93 -1.36,-0.19 -2.75,-0.29 -4.13,-0.35 h -12.63 c -1.04,0 -1.88,0.85 -1.88,1.88 v 82.97 c 0,1.03 0.84,1.86 1.88,1.86 h 14.89 c 1.03,0 1.88,-0.83 1.88,-1.86 V 35.67 c 20.07,4.86 36.12,32.71 36.77,65.49 0,0 0.02,0.43 0.02,0.94 0,0.51 0.42,0.94 0.95,0.94 0.53,0 15.89,0.01 15.89,0.01 1.08,0 1.95,-0.83 1.95,-1.86 V 18.23 c 0,-1.03 -0.84,-1.88 -1.87,-1.88 z"
           id="path144" />
      </g>
      <g
         id="g156">
        <path
           class="cls-2"
           d="M 591.43,16.34 H 522.1 c -1.04,0 -1.88,0.85 -1.88,1.88 v 12.92 c 0,1.03 0.84,1.88 1.88,1.88 h 22.97 c 1.31,0 2.37,0.93 2.37,2.08 v 66.09 c 0,1.03 0.83,1.86 1.87,1.86 h 14.89 c 1.04,0 1.87,-0.83 1.87,-1.86 V 35.1 c 0,-1.15 1.07,-2.08 2.38,-2.08 h 22.97 c 1.03,0 1.87,-0.85 1.87,-1.88 V 18.22 c 0,-1.03 -0.84,-1.88 -1.87,-1.88 z"
           id="path148" />
        <path
           class="cls-2"
           d="m 616.96,16.34 h -17.15 c -1.04,0 -1.88,0.85 -1.88,1.88 v 82.97 c 0,1.03 0.84,1.86 1.88,1.86 h 17.15 c 1.03,0 1.87,-0.83 1.87,-1.86 V 18.23 c 0,-1.03 -0.84,-1.88 -1.87,-1.88 z"
           id="path150" />
        <path
           class="cls-2"
           d="m 693.36,16.34 h -50.61 c -10.49,0 -19.01,7.46 -19.01,16.68 h -0.05 v 68.17 c 0,1.03 0.84,1.86 1.87,1.86 h 15.3 c 1.04,0 1.88,-0.83 1.88,-1.86 v -64 c 0,-2.31 2.13,-4.17 4.75,-4.17 h 6.93 c 2.93,0 5.32,2.08 5.32,4.66 v 63.33 c 0,1.05 0.83,1.88 1.86,1.88 h 12.93 c 1.03,0 1.87,-0.83 1.87,-1.88 V 37.68 c 0,-2.58 2.38,-4.66 5.31,-4.66 h 7.56 c 2.62,0 4.07,1.86 4.07,4.17 v 64 c 0,1.03 0.84,1.86 1.88,1.86 h 15.25 c 1.04,0 1.88,-0.83 1.88,-1.86 V 33.02 c 0,-9.22 -8.51,-16.68 -19.01,-16.68 z"
           id="path152" />
        <path
           class="cls-2"
           d="m 787.91,16.34 h -51.95 c -10.3,0 -18.64,9.51 -18.64,21.25 v 44 c 0,11.76 8.34,21.3 18.64,21.3 h 51.95 c 1.04,0 1.88,-0.83 1.88,-1.88 V 88 c 0,-1.03 -0.84,-1.87 -1.88,-1.87 h -47.29 c -2.57,0 -4.66,-2.39 -4.66,-5.32 V 67.95 h 46.11 c 1.03,0 1.87,-0.84 1.87,-1.87 V 53.16 c 0,-1.04 -0.84,-1.87 -1.87,-1.87 H 735.96 V 38.37 c 0,-2.93 2.09,-5.3 4.66,-5.3 h 47.29 c 1.04,0 1.88,-0.84 1.88,-1.88 V 18.23 c 0,-1.03 -0.84,-1.88 -1.88,-1.88 z"
           id="path154" />
      </g>
      <path
         class="cls-2"
         d="m 512.86,37.44 c -0.8,0 -33.68,-0.02 -33.68,-0.02 h -0.07 c -7.91,0.05 -14.28,6.46 -14.28,14.36 v 49.83 c 0,0.8 0.65,1.43 1.44,1.43 h 11.47 c 0.8,0 1.44,-0.64 1.44,-1.43 V 78.45 h 31.28 c 0.8,0 1.45,-0.64 1.45,-1.43 V 65.54 c 0,-0.79 -0.65,-1.44 -1.45,-1.44 h -31.28 v -8.73 c 0,-1.98 1.6,-3.57 3.58,-3.58 0,0 29.3,0 30.1,0 0.8,0 1.45,-0.65 1.45,-1.44 V 38.88 c 0,-0.81 -0.65,-1.44 -1.45,-1.44 z"
         id="path158" />
      <path
         class="cls-2"
         d="m 415.89,33.18 h 20.32 c 0.81,0 1.47,-0.65 1.47,-1.46 V 16.93 c 0,-0.8 -0.42,-0.95 -0.94,-0.33 l -3.92,4.62 c -0.53,0.61 -1.37,0.61 -1.89,0 l -3.92,-4.62 c -0.52,-0.62 -1.37,-0.62 -1.89,0 l -3.93,4.62 c -0.51,0.62 -1.37,0.62 -1.89,0 l -3.92,-4.62 c -0.52,-0.62 -0.94,-0.46 -0.94,0.33 v 14.79 c 0,0.81 0.65,1.46 1.46,1.46 z"
         id="path160" />
      <path
         class="cls-2"
         d="m 426.06,35.38 c -19.36,0 -35.04,15.69 -35.04,35.04 0,19.35 15.68,35.04 35.04,35.04 19.36,0 35.04,-15.69 35.04,-35.04 0,-19.35 -15.69,-35.04 -35.04,-35.04 z m 0,55.05 c -11.05,0 -20.01,-8.96 -20.01,-20.01 0,-11.05 8.96,-20.02 20.01,-20.02 11.05,0 20.01,8.96 20.01,20.02 0,11.06 -8.96,20.01 -20.01,20.01 z"
         id="path162" />
      <path
         class="cls-3"
         d="m 459.67,39.73 -9.76,-9.76 v 6.56 c -14.12,3.03 -24.65,14.28 -26.88,28.31 -1.99,1.08 -3.35,3.16 -3.35,5.58 0,3.52 2.85,6.38 6.38,6.38 3.53,0 6.38,-2.86 6.38,-6.38 0,-2.02 -0.96,-3.8 -2.42,-4.97 1.92,-10.34 9.7,-18.9 19.9,-21.73 v 5.77 l 9.76,-9.76 z"
         id="path164" />
      <path
         class="cls-3"
         d="m 52.54,4.95 c -0.54,0.6 -1.43,0.6 -1.97,0 l -4.06,-4.5 c -0.54,-0.6 -1.42,-0.6 -1.97,0 l -4.07,4.5 c -0.54,0.6 -1.42,0.6 -1.96,0 l -4.07,-4.5 c -0.53,-0.6 -0.97,-0.44 -0.97,0.33 v 14.37 c 0,0.78 0.68,1.42 1.52,1.42 h 21.08 c 0.84,0 1.52,-0.64 1.52,-1.42 V 0.78 c 0,-0.77 -0.44,-0.93 -0.98,-0.33 l -4.06,4.5 z"
         id="path166" />
      <path
         class="cls-2"
         d="m 0,64.54 c 0,25.09 20.42,45.52 45.53,45.52 25.11,0 45.52,-20.43 45.52,-45.52 C 91.05,39.45 70.63,19.02 45.53,19.02 20.43,19.02 0,39.43 0,64.54 Z m 8.28,0 C 8.28,44 24.99,27.29 45.53,27.29 c 20.54,0 37.25,16.71 37.25,37.25 0,20.54 -16.71,37.25 -37.25,37.25 -20.54,0 -37.25,-16.72 -37.25,-37.25 z"
         id="path168" />
      <path
         class="cls-2"
         d="m 53.4,46.39 c 0,3.36 1.87,6.08 4.18,6.08 2.31,0 4.18,-2.72 4.18,-6.08 0,-3.36 -1.87,-6.09 -4.18,-6.09 -2.31,0 -4.18,2.73 -4.18,6.09 z"
         id="path170" />
      <path
         class="cls-2"
         d="m 37.65,46.39 c 0,3.36 -1.87,6.08 -4.18,6.08 -2.31,0 -4.18,-2.72 -4.18,-6.08 0,-3.36 1.87,-6.09 4.18,-6.09 2.31,0 4.18,2.73 4.18,6.09 z"
         id="path172" />
      <g
         id="g178">
        <path
           class="cls-3"
           d="m 29.29,67.21 c -3.17,-3.17 -8.35,-8.35 -8.36,-8.36 l 3.71,-3.72 H 11.52 v 13.14 l 3.71,-3.72 14.06,14.05 14.06,-14.06 -5.7,-5.7 c 0,0 -5.19,5.19 -8.36,8.36 z"
           id="path174" />
        <path
           class="cls-3"
           d="M 79.54,55.13 H 66.4 l 3.72,3.73 c 0,0 -5.2,5.19 -8.36,8.35 -3.17,-3.17 -8.36,-8.36 -8.36,-8.36 l -5.7,5.7 14.06,14.06 14.06,-14.05 3.72,3.72 V 55.14 Z"
           id="path176" />
      </g>
    </g>
  </g>
</svg>
