<?xml version="1.0" encoding="UTF-8"?><svg id="_イヤー_2" xmlns="http://www.w3.org/2000/svg" viewBox="0 0 789.79 110.06"><defs><style>.cls-1{fill:#fff;}.cls-2{fill:#1d9e48;}.cls-3{fill:#f18800;}</style></defs><g id="_イヤー_1-2"><g id="KING_OF_TIMEロゴ"><path class="cls-1" d="M82.77,64.54c0,20.57-16.68,37.25-37.25,37.25S8.28,85.11,8.28,64.54,24.96,27.29,45.53,27.29s37.25,16.68,37.25,37.25Z"/><g><path class="cls-2" d="M209.45,16.34h-17.15c-1.04,0-1.87,.79-1.87,1.76V101.11c0,1.03,.84,1.87,1.87,1.87h17.15c1.04,0,1.87-.84,1.87-1.87V18.23c0-1.03-.83-1.88-1.87-1.88Z"/><path class="cls-2" d="M374.79,51.28h-36.37c-1.03,0-1.86,.83-1.86,1.86v12.96c0,1.03,.83,1.86,1.86,1.86h19.27c0,7.21-4.74,17.34-19.05,17.34s-21.76-9.03-21.76-26.13,7.52-26.14,21.76-26.14c5.33,0,10.4,2.35,14.36,6.56,0,0,.98,1.05,1.28,1.46,.31,.41,.76,.66,1.23,.71,.48,.07,.98-.05,1.4-.37,.42-.31,12.78-8.86,13.18-9.18,.41-.3,.65-.75,.71-1.21,.06-.47-.06-.96-.37-1.37-.31-.42-1.11-1.39-1.11-1.39-7.86-9.54-18.84-14.97-30.68-14.97-25.23,0-41.53,18.02-41.53,45.91s16.3,45.91,41.53,45.91c20.96,0,38-18.79,38-41.88v-10.05c0-1.03-.83-1.86-1.85-1.86Z"/><path class="cls-2" d="M185.59,100.71c-.93-18.45-11.97-34.56-28.26-43.99,11.54-8.35,20.12-21.35,23.6-36.61,0,0,.22-.85,.41-1.87,.18-1.02-.76-1.88-1.7-1.88h-15.34c-1.17,0-1.83,.88-2.11,1.88-.3,1.01-.56,1.87-.56,1.87-5.25,16.25-18.6,27.86-34.27,27.88-.33-.01-.68-.02-1.02-.03V17.22c0-.48-.4-.88-.88-.88h-16.88c-.48,0-.88,.4-.88,.88V102.18c0,.48,.4,.87,.88,.87h16.88c.49,0,.88-.39,.88-.87v-35.55c21.83,1.01,39.38,15.91,40.62,34.51h.01s0,.03,0,.05c0,1.03,.85,1.86,1.91,1.86,.05,0,.11,0,.16-.01h0c-.06,0-.11,.01-.16,.01h14.92c.92,0,1.62-.67,1.78-1.54,.02-.11,.08-.65,.03-.81Z"/><path class="cls-2" d="M289.46,16.34h-14.9c-1.03,0-1.87,.85-1.87,1.88v22.4c-9.68-13.26-22.5-21.97-36.95-23.93-1.36-.19-2.75-.29-4.13-.35h-12.63c-1.04,0-1.88,.85-1.88,1.88V101.19c0,1.03,.84,1.86,1.88,1.86h14.89c1.03,0,1.88-.83,1.88-1.86V35.67c20.07,4.86,36.12,32.71,36.77,65.49,0,0,.02,.43,.02,.94s.42,.94,.95,.94,15.89,.01,15.89,.01c1.08,0,1.95-.83,1.95-1.86V18.23c0-1.03-.84-1.88-1.87-1.88Z"/></g><g><path class="cls-2" d="M591.43,16.34h-69.33c-1.04,0-1.88,.85-1.88,1.88v12.92c0,1.03,.84,1.88,1.88,1.88h22.97c1.31,0,2.37,.93,2.37,2.08V101.19c0,1.03,.83,1.86,1.87,1.86h14.89c1.04,0,1.87-.83,1.87-1.86V35.1c0-1.15,1.07-2.08,2.38-2.08h22.97c1.03,0,1.87-.85,1.87-1.88v-12.92c0-1.03-.84-1.88-1.87-1.88Z"/><path class="cls-2" d="M616.96,16.34h-17.15c-1.04,0-1.88,.85-1.88,1.88V101.19c0,1.03,.84,1.86,1.88,1.86h17.15c1.03,0,1.87-.83,1.87-1.86V18.23c0-1.03-.84-1.88-1.87-1.88Z"/><path class="cls-2" d="M693.36,16.34h-50.61c-10.49,0-19.01,7.46-19.01,16.68h-.05V101.19c0,1.03,.84,1.86,1.87,1.86h15.3c1.04,0,1.88-.83,1.88-1.86V37.19c0-2.31,2.13-4.17,4.75-4.17h6.93c2.93,0,5.32,2.08,5.32,4.66v63.33c0,1.05,.83,1.88,1.86,1.88h12.93c1.03,0,1.87-.83,1.87-1.88V37.68c0-2.58,2.38-4.66,5.31-4.66h7.56c2.62,0,4.07,1.86,4.07,4.17V101.19c0,1.03,.84,1.86,1.88,1.86h15.25c1.04,0,1.88-.83,1.88-1.86V33.02c0-9.22-8.51-16.68-19.01-16.68Z"/><path class="cls-2" d="M787.91,16.34h-51.95c-10.3,0-18.64,9.51-18.64,21.25v44c0,11.76,8.34,21.3,18.64,21.3h51.95c1.04,0,1.88-.83,1.88-1.88v-13.01c0-1.03-.84-1.87-1.88-1.87h-47.29c-2.57,0-4.66-2.39-4.66-5.32v-12.86h46.11c1.03,0,1.87-.84,1.87-1.87v-12.92c0-1.04-.84-1.87-1.87-1.87h-46.11v-12.92c0-2.93,2.09-5.3,4.66-5.3h47.29c1.04,0,1.88-.84,1.88-1.88v-12.96c0-1.03-.84-1.88-1.88-1.88Z"/></g><path class="cls-2" d="M512.86,37.44c-.8,0-33.68-.02-33.68-.02h-.07c-7.91,.05-14.28,6.46-14.28,14.36v49.83c0,.8,.65,1.43,1.44,1.43h11.47c.8,0,1.44-.64,1.44-1.43v-23.16h31.28c.8,0,1.45-.64,1.45-1.43v-11.48c0-.79-.65-1.44-1.45-1.44h-31.28v-8.73c0-1.98,1.6-3.57,3.58-3.58,0,0,29.3,0,30.1,0s1.45-.65,1.45-1.44v-11.47c0-.81-.65-1.44-1.45-1.44Z"/><path class="cls-2" d="M415.89,33.18h20.32c.81,0,1.47-.65,1.47-1.46v-14.79c0-.8-.42-.95-.94-.33l-3.92,4.62c-.53,.61-1.37,.61-1.89,0l-3.92-4.62c-.52-.62-1.37-.62-1.89,0l-3.93,4.62c-.51,.62-1.37,.62-1.89,0l-3.92-4.62c-.52-.62-.94-.46-.94,.33v14.79c0,.81,.65,1.46,1.46,1.46Z"/><path class="cls-2" d="M426.06,35.38c-19.36,0-35.04,15.69-35.04,35.04s15.68,35.04,35.04,35.04,35.04-15.69,35.04-35.04-15.69-35.04-35.04-35.04Zm0,55.05c-11.05,0-20.01-8.96-20.01-20.01s8.96-20.02,20.01-20.02,20.01,8.96,20.01,20.02-8.96,20.01-20.01,20.01Z"/><path class="cls-3" d="M459.67,39.73l-9.76-9.76v6.56c-14.12,3.03-24.65,14.28-26.88,28.31-1.99,1.08-3.35,3.16-3.35,5.58,0,3.52,2.85,6.38,6.38,6.38s6.38-2.86,6.38-6.38c0-2.02-.96-3.8-2.42-4.97,1.92-10.34,9.7-18.9,19.9-21.73v5.77l9.76-9.76Z"/><path class="cls-3" d="M52.54,4.95c-.54,.6-1.43,.6-1.97,0L46.51,.45c-.54-.6-1.42-.6-1.97,0l-4.07,4.5c-.54,.6-1.42,.6-1.96,0L34.44,.45c-.53-.6-.97-.44-.97,.33V15.15c0,.78,.68,1.42,1.52,1.42h21.08c.84,0,1.52-.64,1.52-1.42V.78c0-.77-.44-.93-.98-.33l-4.06,4.5Z"/><path class="cls-2" d="M0,64.54c0,25.09,20.42,45.52,45.53,45.52s45.52-20.43,45.52-45.52S70.63,19.02,45.53,19.02,0,39.43,0,64.54Zm8.28,0c0-20.54,16.71-37.25,37.25-37.25s37.25,16.71,37.25,37.25-16.71,37.25-37.25,37.25S8.28,85.07,8.28,64.54Z"/><path class="cls-2" d="M53.4,46.39c0,3.36,1.87,6.08,4.18,6.08s4.18-2.72,4.18-6.08-1.87-6.09-4.18-6.09-4.18,2.73-4.18,6.09Z"/><path class="cls-2" d="M37.65,46.39c0,3.36-1.87,6.08-4.18,6.08s-4.18-2.72-4.18-6.08,1.87-6.09,4.18-6.09,4.18,2.73,4.18,6.09Z"/><g><path class="cls-3" d="M29.29,67.21c-3.17-3.17-8.35-8.35-8.36-8.36l3.71-3.72H11.52v13.14l3.71-3.72,14.06,14.05,14.06-14.06-5.7-5.7s-5.19,5.19-8.36,8.36Z"/><path class="cls-3" d="M79.54,55.13h-13.14l3.72,3.73s-5.2,5.19-8.36,8.35c-3.17-3.17-8.36-8.36-8.36-8.36l-5.7,5.7,14.06,14.06,14.06-14.05,3.72,3.72v-13.14Z"/></g></g></g></svg>