<?xml version="1.0" encoding="UTF-8" standalone="no"?>
<!-- Created with Inkscape (http://www.inkscape.org/) -->

<svg
   width="1024"
   height="433"
   viewBox="0 0 1024 433"
   version="1.1"
   id="svg2893"
   xml:space="preserve"
   inkscape:version="1.2.2 (b0a84865, 2022-12-01)"
   sodipodi:docname="postman.svg"
   inkscape:export-filename="postman.png"
   inkscape:export-xdpi="96"
   inkscape:export-ydpi="96"
   xmlns:inkscape="http://www.inkscape.org/namespaces/inkscape"
   xmlns:sodipodi="http://sodipodi.sourceforge.net/DTD/sodipodi-0.dtd"
   xmlns="http://www.w3.org/2000/svg"
   xmlns:svg="http://www.w3.org/2000/svg"><sodipodi:namedview
     id="namedview2895"
     pagecolor="#ffffff"
     bordercolor="#666666"
     borderopacity="1.0"
     inkscape:showpageshadow="2"
     inkscape:pageopacity="0.0"
     inkscape:pagecheckerboard="0"
     inkscape:deskcolor="#d1d1d1"
     inkscape:document-units="mm"
     showgrid="false"
     inkscape:zoom="0.77194346"
     inkscape:cx="415.83356"
     inkscape:cy="176.17871"
     inkscape:window-width="1688"
     inkscape:window-height="1076"
     inkscape:window-x="168"
     inkscape:window-y="263"
     inkscape:window-maximized="0"
     inkscape:current-layer="layer1" /><defs
     id="defs2890"><style
       id="style13516">.cls-1{fill:#fff;}.cls-2{fill:#ff6c37;}</style></defs><g
     inkscape:groupmode="layer"
     id="layer2"
     inkscape:label="Layer 2"><rect
       style="fill:#ffffff;fill-opacity:1;stroke-width:0.105833;stroke-dashoffset:153.287"
       id="rect12528"
       width="1024"
       height="433"
       x="0"
       y="0" /></g><g
     inkscape:label="Layer 1"
     inkscape:groupmode="layer"
     id="layer1"><g
       id="g13557"
       transform="matrix(2.2755694,0,0,2.2755694,77.13935,85.633124)"><circle
         class="cls-1"
         cx="56.93"
         cy="57.669998"
         r="51.700001"
         id="circle13520" /><path
         class="cls-2"
         d="M 140.09,73.66 V 41 a 1.27,1.27 0 0 1 0.46,-1 1.74,1.74 0 0 1 1.19,-0.42 h 9.2 a 10.79,10.79 0 0 1 7.48,2.53 c 1.88,1.69 2.81,4.34 2.81,8 v 0.43 c 0,3.64 -0.95,6.3 -2.86,8 a 11,11 0 0 1 -7.6,2.55 h -6.57 v 12.57 a 1.12,1.12 0 0 1 -0.15,0.62 1.15,1.15 0 0 1 -0.45,0.45 2.77,2.77 0 0 1 -1.43,0.39 2.81,2.81 0 0 1 -1.44,-0.39 1.17,1.17 0 0 1 -0.47,-0.44 1.27,1.27 0 0 1 -0.17,-0.63 z m 4.08,-16 h 6.6 a 6.2,6.2 0 0 0 2.56,-0.37 6.4,6.4 0 0 0 2.19,-1.36 7.13,7.13 0 0 0 1.67,-5.18 v -0.59 a 7.13,7.13 0 0 0 -1.67,-5.16 6.22,6.22 0 0 0 -2.19,-1.35 6.37,6.37 0 0 0 -2.56,-0.37 h -6.56 z"
         id="path13522" /><path
         class="cls-2"
         d="M 175.52,64.81 V 50.16 q 0,-5.47 2.84,-8 a 12.68,12.68 0 0 1 15.25,0 c 1.91,1.71 2.86,4.39 2.87,8 v 14.65 c 0,3.67 -0.95,6.35 -2.87,8 a 12.63,12.63 0 0 1 -15.27,0 c -1.88,-1.66 -2.82,-4.32 -2.82,-8 z m 4.09,0 q 0,6.9 6.37,6.91 a 6.35,6.35 0 0 0 2.55,-0.37 6.16,6.16 0 0 0 2.19,-1.35 7.18,7.18 0 0 0 1.68,-5.18 V 50.16 A 7.13,7.13 0 0 0 192.07,47.41 7.21,7.21 0 0 0 190.72,45 6.35,6.35 0 0 0 186,43.26 c -4.25,0 -6.36,2.31 -6.36,6.9 z"
         id="path13524" /><path
         class="cls-2"
         d="m 210.94,70.11 a 2.47,2.47 0 0 1 0.55,-1.5 1.65,1.65 0 0 1 0.51,-0.51 1.53,1.53 0 0 1 0.68,-0.23 2,2 0 0 1 1.12,0.62 c 0.45,0.4 0.92,0.85 1.41,1.34 a 6.35,6.35 0 0 0 2.3,1.37 9.43,9.43 0 0 0 3.56,0.6 7.42,7.42 0 0 0 5,-1.53 5.56,5.56 0 0 0 1.81,-4.49 6.07,6.07 0 0 0 -0.38,-2.35 5.81,5.81 0 0 0 -1.27,-2 11,11 0 0 0 -4,-2.55 c -1.57,-0.58 -3.13,-1.18 -4.75,-1.87 a 10.09,10.09 0 0 1 -4,-3.06 8.32,8.32 0 0 1 -1.65,-5.33 9.64,9.64 0 0 1 1,-4.45 6.81,6.81 0 0 1 2.6,-2.85 13.49,13.49 0 0 1 3.38,-1.4 15.26,15.26 0 0 1 3.75,-0.44 18.76,18.76 0 0 1 5.76,0.87 c 1.83,0.6 2.76,1.4 2.76,2.37 a 2.72,2.72 0 0 1 -0.49,1.46 1.39,1.39 0 0 1 -0.53,0.57 1.49,1.49 0 0 1 -0.74,0.22 16.5,16.5 0 0 1 -2.18,-0.87 10.87,10.87 0 0 0 -4.52,-0.93 8.59,8.59 0 0 0 -4.75,1.19 4.27,4.27 0 0 0 -1.87,3.84 4.34,4.34 0 0 0 0.37,2 4.44,4.44 0 0 0 1.23,1.64 12.6,12.6 0 0 0 4,2.21 c 1.58,0.56 3.15,1.19 4.75,1.9 a 10.12,10.12 0 0 1 4,3.43 10.28,10.28 0 0 1 1.64,6 q 0,5 -2.92,7.57 A 11.28,11.28 0 0 1 221.35,75.5 13.81,13.81 0 0 1 214,73.7 c -2.07,-1.21 -3.06,-2.41 -3.06,-3.59 z"
         id="path13526" /><path
         class="cls-2"
         d="m 244.11,41.36 a 2.06,2.06 0 0 1 0.39,-1.25 1.16,1.16 0 0 1 0.46,-0.42 1.18,1.18 0 0 1 0.61,-0.13 h 19.8 a 1.18,1.18 0 0 1 0.61,0.13 1.23,1.23 0 0 1 0.46,0.42 2.2,2.2 0 0 1 0.39,1.25 2.3,2.3 0 0 1 -0.39,1.33 1.14,1.14 0 0 1 -0.46,0.44 1.18,1.18 0 0 1 -0.61,0.13 h -7.78 v 30.4 a 1.12,1.12 0 0 1 -0.15,0.62 1.15,1.15 0 0 1 -0.45,0.45 2.77,2.77 0 0 1 -1.43,0.39 2.81,2.81 0 0 1 -1.44,-0.39 1.21,1.21 0 0 1 -0.45,-0.45 1.32,1.32 0 0 1 -0.15,-0.62 v -30.4 h -7.89 a 1.09,1.09 0 0 1 -0.61,-0.13 1.14,1.14 0 0 1 -0.46,-0.41 2.29,2.29 0 0 1 -0.45,-1.36 z"
         id="path13528" /><path
         class="cls-2"
         d="m 280.69,73.66 v -32 a 1.82,1.82 0 0 1 0.31,-1.32 1.79,1.79 0 0 1 1.15,-0.72 2.29,2.29 0 0 1 0.64,0 c 1.3,0 2.37,0.86 3.27,2.58 l 7.63,14.64 7.69,-14.64 c 0.94,-1.72 2,-2.58 3.25,-2.58 a 1.76,1.76 0 0 1 2,1.47 v 0 a 1.46,1.46 0 0 1 0,0.51 v 32 a 1.32,1.32 0 0 1 -0.15,0.62 1.15,1.15 0 0 1 -0.45,0.45 2.82,2.82 0 0 1 -1.44,0.4 2.78,2.78 0 0 1 -1.43,-0.4 1.15,1.15 0 0 1 -0.45,-0.45 1.12,1.12 0 0 1 -0.15,-0.62 V 48.12 l -7.35,13.81 a 1.75,1.75 0 0 1 -0.62,0.85 1.49,1.49 0 0 1 -1.92,0 1.73,1.73 0 0 1 -0.57,-0.83 l -7.34,-14 v 25.71 a 1.22,1.22 0 0 1 -0.16,0.62 1.19,1.19 0 0 1 -0.44,0.45 2.55,2.55 0 0 1 -1.38,0.45 2.47,2.47 0 0 1 -1.43,-0.39 1.16,1.16 0 0 1 -0.52,-0.46 1.2,1.2 0 0 1 -0.14,-0.67 z"
         id="path13530" /><path
         class="cls-2"
         d="m 320.63,73.44 a 1.37,1.37 0 0 1 0.09,-0.4 l 10,-32 c 0.29,-0.94 1.1,-1.42 2.48,-1.42 1.38,0 2.2,0.48 2.48,1.42 l 10,32.2 a 0.54,0.54 0 0 0 0,0.18 0.33,0.33 0 0 1 0,0.14 1.36,1.36 0 0 1 -0.23,0.7 1.43,1.43 0 0 1 -0.57,0.49 3.17,3.17 0 0 1 -1.78,0.47 1.33,1.33 0 0 1 -0.89,-0.19 1.35,1.35 0 0 1 -0.57,-0.72 l -2.13,-7.12 H 326.7 l -2.13,7.11 A 1.32,1.32 0 0 1 324,75 a 1.27,1.27 0 0 1 -0.91,0.2 3,3 0 0 1 -1.65,-0.49 1.35,1.35 0 0 1 -0.59,-0.52 1.32,1.32 0 0 1 -0.22,-0.75 z m 7.06,-9.75 h 10.88 l -5.45,-18.18 z"
         id="path13532" /><path
         class="cls-2"
         d="M 359.74,73.66 V 41 c 0,-0.93 0.67,-1.41 2,-1.41 a 2.66,2.66 0 0 1 1.73,0.6 6.32,6.32 0 0 1 1.38,2 L 377,65.87 V 41 a 1.21,1.21 0 0 1 0.16,-0.61 1.24,1.24 0 0 1 0.44,-0.44 3,3 0 0 1 1.44,-0.36 3,3 0 0 1 1.43,0.36 1.27,1.27 0 0 1 0.45,0.44 1.32,1.32 0 0 1 0.16,0.61 v 32.66 a 1.13,1.13 0 0 1 -0.16,0.62 1.08,1.08 0 0 1 -0.45,0.45 2.51,2.51 0 0 1 -1.43,0.39 2.91,2.91 0 0 1 -2.58,-1.85 L 363.82,48.81 v 24.85 a 1.18,1.18 0 0 1 -0.6,1.07 2.84,2.84 0 0 1 -2.87,0 1.17,1.17 0 0 1 -0.46,-0.45 1.21,1.21 0 0 1 -0.15,-0.62 z"
         id="path13534" /><path
         class="cls-2"
         d="m 89.88,29.34 a 0.53,0.53 0 0 0 -0.2,0.16 0.61,0.61 0 0 0 -0.13,0.22 0.73,0.73 0 0 0 0,0.25 0.72,0.72 0 0 0 0.07,0.25 1.9,1.9 0 0 1 0.19,1.1 2,2 0 0 1 -0.43,1 0.61,0.61 0 0 0 -0.14,0.47 0.63,0.63 0 0 0 0.24,0.43 0.64,0.64 0 0 0 0.46,0.15 0.63,0.63 0 0 0 0.44,-0.22 3.3,3.3 0 0 0 0.74,-1.71 3.26,3.26 0 0 0 -0.33,-1.84 0.65,0.65 0 0 0 -0.37,-0.32 0.71,0.71 0 0 0 -0.54,0.06 z"
         id="path13536" /><path
         class="cls-2"
         d="M 64.71,1.46 A 56.5,56.5 0 1 0 113.63,64.7 56.57,56.57 0 0 0 64.71,1.46 Z m 11.65,35.25 a 4,4 0 0 0 -2.8,1.18 l -21,21 -4.48,-4.48 C 68.77,33.77 72.51,33.57 76.36,36.71 Z M 53.42,59.59 74.36,38.69 a 2.92,2.92 0 0 1 4.78,1 3,3 0 0 1 0.2,1.16 2.86,2.86 0 0 1 -0.28,1.15 3,3 0 0 1 -0.71,0.95 L 56.19,62.36 Z M 55,62.86 49.79,64 a 0.22,0.22 0 0 1 -0.18,0 0.28,0.28 0 0 1 -0.14,-0.12 0.29,0.29 0 0 1 0,-0.18 0.38,0.38 0 0 1 0.08,-0.17 l 3,-3 z m -13.24,-2.16 5.52,-5.52 4.15,4.13 -9.34,2 a 0.31,0.31 0 0 1 -0.23,0 0.37,0.37 0 0 1 -0.17,-0.16 0.35,0.35 0 0 1 0,-0.22 0.33,0.33 0 0 1 0.07,-0.23 z m -17.2,28.53 a 0.33,0.33 0 0 1 -0.18,-0.08 0.36,0.36 0 0 1 -0.11,-0.16 0.27,0.27 0 0 1 0,-0.2 0.4,0.4 0 0 1 0.09,-0.17 l 4.46,-4.46 5.77,5.76 z M 36,83.31 a 1.11,1.11 0 0 0 -0.48,0.5 1.05,1.05 0 0 0 -0.07,0.7 l 0.95,4.07 a 0.58,0.58 0 0 1 0,0.37 0.55,0.55 0 0 1 -0.25,0.27 0.53,0.53 0 0 1 -0.37,0.07 0.59,0.59 0 0 1 -0.33,-0.15 l -5.79,-5.78 17.69,-17.71 8.59,-1.84 4.12,4.12 C 54.13,73.1 46,78.28 36,83.3 Z m 24.89,-16.14 -4,-4 22.2,-19.38 a 3.53,3.53 0 0 0 0.56,-0.6 c -0.7,6.34 -9.57,15.28 -18.75,24 z M 78.13,36.74 a 8.58,8.58 0 0 1 11.6,-12.63 l -7.61,7.59 a 0.71,0.71 0 0 0 -0.12,0.18 0.51,0.51 0 0 0 0,0.44 0.71,0.71 0 0 0 0.12,0.18 L 88,38.37 a 8.58,8.58 0 0 1 -9.86,-1.63 z m 12.16,0 a 8,8 0 0 1 -1.28,1 l -5.69,-5.64 7.23,-7.22 a 8.57,8.57 0 0 1 -0.27,11.86 z"
         id="path13538" /><path
         class="cls-2"
         d="m 202,106 1.76,-5 h 7.06 l 1.75,5 h 2.22 L 208.38,88.54 H 206.2 L 199.79,106 Z m 2.43,-6.82 2.79,-7.88 h 0.14 l 2.79,7.88 z m 14.08,6.82 h 2.11 v -6.38 h 3.82 c 4.06,0 5.9,-2.47 5.9,-5.55 0,-3.08 -1.84,-5.53 -5.93,-5.53 h -5.9 z m 2.11,-8.25 v -7.33 h 3.72 c 2.84,0 3.92,1.55 3.92,3.65 0,2.1 -1.08,3.68 -3.89,3.68 z m 16.24,-9.21 h -2.12 V 106 h 2.12 z m 13,17.46 H 252 v -6.38 h 3.82 c 4.06,0 5.89,-2.47 5.89,-5.55 0,-3.08 -1.83,-5.53 -5.93,-5.53 h -5.9 z M 252,97.75 v -7.33 h 3.71 c 2.84,0 3.92,1.55 3.92,3.65 0,2.1 -1.08,3.68 -3.88,3.68 z m 14.08,8.25 h 10.23 v -1.88 h -8.12 V 88.54 h -2.11 z m 16.32,0 1.75,-5 h 7.06 l 1.75,5 h 2.22 l -6.41,-17.46 h -2.18 L 280.18,106 Z m 2.42,-6.82 2.79,-7.88 h 0.14 l 2.79,7.88 z m 11.08,-8.76 h 5.49 V 106 h 2.12 V 90.42 H 309 V 88.54 H 295.9 Z M 313.26,106 h 2.11 v -7.81 h 7.57 v -1.87 h -7.57 v -5.9 h 8.35 v -1.88 h -10.46 z m 29.81,-8.73 c 0,-5.52 -3.24,-9 -7.7,-9 -4.46,0 -7.71,3.45 -7.71,9 0,5.55 3.24,9 7.71,9 4.47,0 7.7,-3.48 7.7,-9 z m -2,0 c 0,4.53 -2.49,7 -5.66,7 -3.17,0 -5.66,-2.46 -5.66,-7 0,-4.54 2.49,-7 5.66,-7 3.17,0 5.59,2.47 5.59,7 z m 6.6,8.73 h 2.11 V 99.18 H 354 l 3.68,6.83 h 2.46 l -3.95,-7.21 a 4.76,4.76 0 0 0 3.26,-4.9 c 0,-3.08 -1.84,-5.35 -5.93,-5.35 h -5.89 z m 2.11,-8.73 v -6.85 h 3.71 c 2.83,0 3.93,1.38 3.93,3.47 0,2.09 -1.1,3.38 -3.89,3.38 z M 364,88.54 V 106 h 2 V 92.74 h 0.17 l 5.41,13.26 h 1.91 l 5.45,-13.26 h 0.17 V 106 h 2 V 88.54 h -2.52 L 372.64,103 h -0.21 L 366.5,88.54 Z"
         id="path13540" /></g></g></svg>
